<?xml version="1.0" encoding="UTF-8"?>
<svg xmlns="http://www.w3.org/2000/svg" version="1.1" viewBox="0 0 282 72">
  <defs>
    <style>
      .cls-1 {
        fill: #fff;
      }
    </style>
  </defs>
  <!-- Generator: Adobe Illustrator 28.7.1, SVG Export Plug-In . SVG Version: 1.2.0 Build 142)  -->
  <g>
    <g id="Capa_1">
      <g>
        <path class="cls-1" d="M39,37.7c.5-5.3-.6-8.7-2-11.8-2.5-5-5.7-7.6,0-13.7-8.3,5.9-7.5,6.2-5.4,9.3,2.2,2.7,6.3,8.9,7.3,16.2"/>
        <path class="cls-1" d="M5.5,20.1c.8-.6,1.7-.9,2.1-.9.5.2.9.7,1.3,1,.1,0,.3.2.4.2.5-.2,1.5-1,2.1-1.5.2-.1.2-.2,0-.2-.6,0-2.1,0-3.2,0,0,0,0-.1,0-.2,3.3-2.7,8.6-1,14.3-2.2.7.5-1.8,2.2-4.3,3.9,1.5-.4,3-1,4.6-1.7,1.9-1,4.2-2.5,6.6-4.1,5.7-4,9.6-8,12.9-9.7,2.5-1,4.3-.9,6,.4,3.5,2.7,2.6,10.4,2.2,14-.7,7.4-2.7,16.4-6.3,23.4-1.8,3.9-6.4,5.4-9.8,5.5,3.3-4.3,3.7-8.9,2-13-2.1-5.8-8.5-10.6-16.3-11.8-4.5-.7-9-.9-12.5-.8-.5,0-1.4,0-1.5.9-.5-.7-.8-1.3-.9-1.8-.1-.5,0-.9.5-1.2M6.4,8.7c.4-2.2,1.2-3.3,2.4-3.9,3.1-1.4,4.7-.2,7.2,1.5,3.8,2.6,8.5,6.5,9.7,8-12.5,1.5-15.5-.6-19.2,3.3-.4-4.1-.4-6.9,0-8.8M27.8,48.2c-2.5.2-4.8.2-6.7-.1-2.5-.2-4.6-1.5-6.4-3.5-1.3-1.7-2.4-3.8-3.3-5.9-2.3-6-3.8-11.6-4.2-14.4-.1,0,2.4-.3,5.3,0,4,0,9.6.3,7.4,4.7,6.1-3.3,11,1.2,12.6,3.2.6.5,2.2,3.5,2.4,6.8,0,4.6-1.7,8.6-7.2,9.3M7.3,49.2c6.8,1.8,28,.9,38.3.3,2.4-.3,5.5-.3,7.4-3,.7-.8,1-1.8,1.5-4.3.5-5.1.8-10.5.7-16.8-.2-6-.3-12.9-1.2-17.8-1-4.6-3.9-5.8-9.1-6.2-13.9-.8-20.6-.6-33,0C4.2,2.1,1.8,3.9,1.4,13c-.6,9.6-.5,19.5.5,28.6.5,6.2,3.3,7.2,5.4,7.6"/>
        <path class="cls-1" d="M28.5,30.9c-2.1-1.8-5.3-2.8-7.3-1.3-1.1,1.1-1.3,2.1-.7,3.9.2.5.3,1.1.3,1.7,0,1.6-1.3,2.5-2.1,5,.7-.8,2.7-1.3,3.5.3.4,0,.9,0,1,.9.5-1.7-1.7-1-.6-2.9-1.2.9-1.3-.2-2.5.3,0-.3.2-1,.6-1.4,2.1-3,4.6-.8,5.9-3.2-3.4,2.3-6.9-2.1-5.2-3.6,1.2-1.2,3.5-.5,4.8.2.7.3,2.5,1.8,3.5,4,.4,1.1.9,5.2-1,7-1.1.9-1.8,1.2-3.2.8-3.9-1.1-3.6,2.2-6.5.2-.2.8.4,1.6,1.4,1.9,1.2.2,2-.5,2.5-.6.6-.2.8.1,0,.6-.3.2-.3.4.2.5.1,0,.6,0,1,0,.5,0,1-.2,1.2-.2.3,0,.5.2-.1.6-.3.2-1.1.5-1.8.6.5.2,1.8.4,3.2.3,3.8-.4,5.3-4.6,5.4-7.9,0-2.9-1.2-5.5-3.4-7.5"/>
        <path class="cls-1" d="M10.1,60.3l-2.2,1c-.3-.6-.8-1.4-1.9-1.4s-1.4.5-1.4,1.2c0,2.2,5.7,1.8,5.7,5.9s-1.6,4-4.4,4-4-2-4.3-3l2.2-1.1c.4.9,1.1,1.7,2.3,1.7s1.6-.5,1.6-1.3c0-2.2-5.6-1.9-5.6-6s1.6-3.7,4.1-3.7,3.7,1.9,4,2.8"/>
        <polygon class="cls-1" points="12.8 57.7 19.5 57.7 19.5 60.1 15.4 60.1 15.4 63 18.9 63 18.9 65.3 15.4 65.3 15.4 68.4 19.7 68.4 19.7 70.8 12.8 70.8 12.8 57.7"/>
        <path class="cls-1" d="M22.4,57.7h3.9c2.9,0,4.4,1.7,4.4,3.9s-.8,2.8-2,3.4l3.1,5.7h-2.9l-2.5-5.1h-1.4v5.1h-2.6v-13ZM26.3,63.4c1,0,1.8-.6,1.8-1.8s-.7-1.7-1.9-1.7h-1.1v3.4h1.2Z"/>
        <polygon class="cls-1" points="37.7 70.8 32.9 57.7 35.8 57.7 39.1 67.7 42.5 57.7 45.4 57.7 40.5 70.8 37.7 70.8"/>
        <rect class="cls-1" x="47.4" y="57.7" width="2.6" height="13"/>
        <path class="cls-1" d="M52.5,64.2c0-3.8,2.9-6.8,6.8-6.8s3,.6,3.9,1.2l-.7,2.3c-.6-.4-1.8-1-3.1-1-2.4,0-4.1,1.8-4.1,4.3s1.7,4.3,4.1,4.3,2.6-.6,3.3-1.1l.7,2.3c-.8.6-2.1,1.2-4,1.2-4.1,0-6.8-2.9-6.8-6.8"/>
        <rect class="cls-1" x="65.8" y="57.7" width="2.6" height="13"/>
        <path class="cls-1" d="M70.9,64.2c0-3.8,2.8-6.8,6.8-6.8s6.8,3,6.8,6.8-2.8,6.8-6.8,6.8-6.8-2.9-6.8-6.8M73.6,64.2c0,2.5,1.7,4.3,4.1,4.3s4.1-1.8,4.1-4.3-1.7-4.3-4.1-4.3-4.1,1.8-4.1,4.3"/>
        <path class="cls-1" d="M94.6,60.3l-2.2,1c-.3-.6-.8-1.4-1.9-1.4s-1.4.5-1.4,1.2c0,2.2,5.7,1.8,5.7,5.9s-1.6,4-4.4,4-4-2-4.3-3l2.2-1.1c.4.9,1.1,1.7,2.3,1.7s1.6-.5,1.6-1.3c0-2.2-5.6-1.9-5.6-6s1.6-3.7,4.1-3.7,3.7,1.9,4,2.8"/>
        <path class="cls-1" d="M102.6,57.7h4.2c2.6,0,4.3,1.6,4.3,4.1s-1.8,4.1-4.3,4.1h-1.6v4.9h-2.6v-13ZM106.4,63.6c1.2,0,1.9-.7,1.9-1.8s-.8-1.8-1.9-1.8h-1.2v3.6h1.2Z"/>
        <path class="cls-1" d="M118.6,71c-3.4,0-5.3-2.1-5.3-5.1v-8.1h2.6v8.1c0,1.7,1,2.7,2.6,2.7s2.6-1,2.6-2.7v-8.1h2.6v8.1c0,3.1-1.9,5.1-5.3,5.1M117.4,57h2.2l1.8-2.7h-2.7l-1.3,2.7Z"/>
        <path class="cls-1" d="M127,57.7h4.2c2.6,0,4.3,1.3,4.3,3.4s-.6,2.3-1.6,2.8c1.2.5,2,1.6,2,3,0,2.5-2.1,3.8-4.5,3.8h-4.4v-13ZM131.1,63c.9,0,1.6-.6,1.6-1.5s-.7-1.5-1.7-1.5h-1.5v3h1.5ZM131.2,68.5c1.1,0,1.9-.7,1.9-1.7s-.8-1.7-1.9-1.7h-1.6v3.4h1.6Z"/>
        <polygon class="cls-1" points="138.4 57.7 141 57.7 141 68.4 145.3 68.4 145.3 70.8 138.4 70.8 138.4 57.7"/>
        <rect class="cls-1" x="147.5" y="57.7" width="2.6" height="13"/>
        <path class="cls-1" d="M152.6,64.2c0-3.8,2.9-6.8,6.8-6.8s3,.6,3.9,1.2l-.7,2.3c-.6-.4-1.8-1-3.1-1-2.4,0-4.1,1.8-4.1,4.3s1.7,4.3,4.1,4.3,2.6-.6,3.3-1.1l.7,2.3c-.8.6-2.1,1.2-4,1.2-4.1,0-6.8-2.9-6.8-6.8"/>
        <path class="cls-1" d="M165.2,64.2c0-3.8,2.8-6.8,6.8-6.8s6.8,3,6.8,6.8-2.8,6.8-6.8,6.8-6.8-2.9-6.8-6.8M168,64.2c0,2.5,1.7,4.3,4.1,4.3s4.1-1.8,4.1-4.3-1.7-4.3-4.1-4.3-4.1,1.8-4.1,4.3"/>
        <path class="cls-1" d="M189,60.3l-2.2,1c-.3-.6-.8-1.4-1.9-1.4s-1.4.5-1.4,1.2c0,2.2,5.7,1.8,5.7,5.9s-1.6,4-4.4,4-4-2-4.3-3l2.2-1.1c.4.9,1.1,1.7,2.3,1.7s1.6-.5,1.6-1.3c0-2.2-5.6-1.9-5.6-6s1.6-3.7,4.1-3.7,3.7,1.9,4,2.8"/>
        <path class="cls-1" d="M197,57.7h3.5c4.3,0,6.9,2.4,6.9,6.5s-2.7,6.5-6.9,6.5h-3.5v-13ZM200.5,68.5c2.5,0,4.1-1.4,4.1-4.2s-1.6-4.2-4.1-4.2h-.9v8.5h.9Z"/>
        <polygon class="cls-1" points="209.9 57.7 216.6 57.7 216.6 60.1 212.5 60.1 212.5 63 216 63 216 65.3 212.5 65.3 212.5 68.4 216.8 68.4 216.8 70.8 209.9 70.8 209.9 57.7"/>
        <path class="cls-1" d="M232.5,60.3l-2.2,1c-.3-.6-.8-1.4-1.9-1.4s-1.4.5-1.4,1.2c0,2.2,5.7,1.8,5.7,5.9s-1.6,4-4.4,4-4-2-4.3-3l2.2-1.1c.4.9,1.1,1.7,2.3,1.7s1.6-.5,1.6-1.3c0-2.2-5.6-1.9-5.6-6s1.6-3.7,4.1-3.7,3.7,1.9,4,2.8"/>
        <path class="cls-1" d="M237.9,67.4l-1.1,3.4h-2.7l4.6-13h2.8l4.6,13h-2.7l-1.1-3.4h-4.5ZM240.1,60.5l-1.5,4.7h3l-1.5-4.7Z"/>
        <polygon class="cls-1" points="248.2 57.7 250.8 57.7 250.8 68.4 255.1 68.4 255.1 70.8 248.2 70.8 248.2 57.7"/>
        <path class="cls-1" d="M256.9,65.9v-8.1h2.6v8.1c0,1.7,1,2.7,2.6,2.7s2.6-1,2.6-2.7v-8.1h2.6v8.1c0,3.1-1.9,5.1-5.3,5.1s-5.3-2.1-5.3-5.1"/>
        <path class="cls-1" d="M270.6,57.7h3.5c4.3,0,6.9,2.4,6.9,6.5s-2.7,6.5-6.9,6.5h-3.5v-13ZM274.2,68.5c2.5,0,4.1-1.4,4.1-4.2s-1.6-4.2-4.1-4.2h-.9v8.5h.9Z"/>
        <path class="cls-1" d="M63.3,19.3c0-1.3,0-2.6-.2-3.9.3,0,.7,0,1.1.1.4,0,.8,0,1.3,0s.9,0,1.3,0c.4,0,.8,0,1.1-.1,0,1.3-.1,2.6-.2,3.9,0,1.3,0,2.7,0,4.4v4c0,1.6,0,3.1,0,4.4,0,1.3,0,2.5.2,3.8-.3,0-.7,0-1.1,0h-2.7c-.4,0-.8,0-1.1,0,0-1.2.1-2.5.2-3.8,0-1.3,0-2.7,0-4.4v-4c0-1.6,0-3.1,0-4.4"/>
        <path class="cls-1" d="M74.8,29.2c-.2,2.2-.3,4.4-.5,6.7-.2,0-.5,0-.7,0h-1.4c-.2,0-.5,0-.7,0,.6-3.4,1.2-6.8,1.7-10.2.5-3.4,1-6.8,1.4-10.3.2,0,.4,0,.6.1.2,0,.4,0,.6,0s.4,0,.6,0c.2,0,.4,0,.6-.1.5,1.2,1.1,2.4,1.7,3.6.6,1.2,1.2,2.5,1.8,3.7.6,1.2,1.2,2.4,1.8,3.6.6,1.2,1.1,2.3,1.7,3.3,1.2-2.2,2.4-4.5,3.6-7,1.2-2.4,2.3-4.8,3.4-7.2.5,0,.9.1,1.3.1s.8,0,1.3-.1c.2,1.7.4,3.5.6,5.5.2,2,.5,3.9.7,5.8.2,1.9.4,3.6.7,5.3.2,1.6.4,2.9.6,3.9-.4,0-.8,0-1.2,0h-2.4c-.4,0-.8,0-1.3,0,0-2-.3-4.3-.5-6.6-.2-2.4-.5-4.7-.7-7.1h0c-1.1,2.3-2.2,4.6-3.3,6.9-1.1,2.3-2.2,4.5-3.2,6.8,0,0-.2,0-.3,0,0,0-.2,0-.3,0s-.2,0-.3,0c0,0-.2,0-.3,0-1.1-2.2-2.1-4.4-3.2-6.7-1.1-2.2-2.2-4.5-3.3-6.8h0c-.3,2.3-.6,4.5-.7,6.8"/>
        <path class="cls-1" d="M104.8,16.9c-.9,0-1.7.3-2.2.8-.6.5-.9,1.2-.9,1.9s.2,1.3.7,1.8c.4.5,1,.9,1.7,1.3.7.4,1.4.7,2.2,1.1.8.3,1.5.8,2.2,1.3.7.5,1.2,1.1,1.7,1.8.4.7.7,1.7.7,2.8s-.2,1.9-.6,2.7c-.4.8-.9,1.5-1.6,2.1-.7.6-1.5,1-2.5,1.3-1,.3-2,.5-3.2.5s-2-.1-2.9-.3c-.8-.2-1.5-.5-1.9-.8.2-.7.4-1.3.5-1.9.1-.6.3-1.2.4-1.9h.6c0,.4.2.8.4,1.2.2.4.5.7.8,1,.3.3.7.5,1.2.7.5.2,1,.3,1.6.3,1.2,0,2.1-.3,2.6-.9.6-.6.8-1.3.8-2.1s-.2-1.4-.7-1.8c-.4-.5-1-.9-1.6-1.3-.7-.4-1.4-.7-2.1-1.1-.8-.3-1.5-.8-2.1-1.3-.7-.5-1.2-1.1-1.6-1.8-.4-.7-.7-1.7-.7-2.8s.2-1.9.6-2.7c.4-.8.9-1.5,1.5-2,.6-.5,1.3-.9,2.1-1.2.8-.3,1.7-.4,2.5-.4s2,.1,2.8.4c.8.3,1.5.6,2.1,1.1-.2.5-.3.9-.5,1.3-.1.4-.3,1-.5,1.6h-.4c-.6-1.7-1.8-2.6-3.6-2.6"/>
        <path class="cls-1" d="M119.7,16.9c-.9,0-1.7.3-2.2.8-.6.5-.9,1.2-.9,1.9s.2,1.3.7,1.8c.4.5,1,.9,1.7,1.3.7.4,1.4.7,2.2,1.1.8.3,1.5.8,2.2,1.3.7.5,1.2,1.1,1.7,1.8.4.7.7,1.7.7,2.8s-.2,1.9-.6,2.7c-.4.8-.9,1.5-1.6,2.1-.7.6-1.5,1-2.5,1.3-1,.3-2,.5-3.2.5s-2-.1-2.9-.3c-.8-.2-1.5-.5-1.9-.8.2-.7.4-1.3.5-1.9.1-.6.3-1.2.4-1.9h.6c0,.4.2.8.4,1.2.2.4.5.7.8,1,.3.3.7.5,1.2.7.5.2,1,.3,1.6.3,1.2,0,2.1-.3,2.6-.9.6-.6.8-1.3.8-2.1s-.2-1.4-.7-1.8c-.4-.5-1-.9-1.6-1.3-.7-.4-1.4-.7-2.1-1.1-.8-.3-1.5-.8-2.1-1.3-.7-.5-1.2-1.1-1.6-1.8-.4-.7-.7-1.7-.7-2.8s.2-1.9.6-2.7c.4-.8.9-1.5,1.5-2,.6-.5,1.3-.9,2.1-1.2.8-.3,1.7-.4,2.5-.4s2,.1,2.8.4c.8.3,1.5.6,2.1,1.1-.2.5-.3.9-.5,1.3-.1.4-.3,1-.5,1.6h-.4c-.6-1.7-1.8-2.6-3.6-2.6"/>
        <path class="cls-1" d="M135.3,23.7c0-1.6,0-3.1,0-4.4,0-1.3,0-2.6-.2-3.9.3,0,.7,0,1.1.1.4,0,.8,0,1.3,0,.9,0,1.7,0,2.7,0,.9,0,1.8,0,2.7,0s1.7,0,2.4.3c.7.2,1.4.5,1.9.8.5.4.9.8,1.2,1.4.3.6.4,1.3.4,2.1s-.2,1.5-.5,2.1c-.3.6-.8,1.1-1.2,1.5-.5.4-1,.7-1.6.9-.6.2-1.1.4-1.5.4h0c.5,0,1,.2,1.6.4.6.2,1.2.5,1.8.9.6.4,1,.9,1.4,1.5.4.6.6,1.4.6,2.3s-.2,2-.6,2.7c-.4.8-.9,1.4-1.6,1.8-.6.5-1.4.8-2.2,1-.8.2-1.7.3-2.6.3s-1.5,0-2.2,0c-.7,0-1.4,0-2.2,0h-1.7c-.6,0-1,0-1.4,0,0-1.2.1-2.5.2-3.8,0-1.3,0-2.7,0-4.4v-4ZM144.5,20.6c0-.5,0-.9-.2-1.4-.1-.4-.3-.8-.6-1.1-.3-.3-.6-.6-1-.7-.4-.2-.9-.3-1.5-.3s-.7,0-.9,0c-.2,0-.4,0-.6,0,0,.7,0,1.5,0,2.2,0,.8,0,1.4,0,1.9s0,1,0,1.5c0,.5,0,1,0,1.5h1.3c.4,0,.8,0,1.2-.2.4-.2.8-.4,1.1-.7.3-.3.6-.7.8-1.2.2-.5.3-1,.3-1.7M144.7,30.2c0-1.4-.3-2.4-.9-3.1-.6-.7-1.5-1-2.7-1s-.5,0-.7,0c-.2,0-.4,0-.6,0,0,.4,0,.8,0,1.3,0,.4,0,1,0,1.6s0,1,0,1.5c0,.5,0,1,0,1.5s0,.9,0,1.3c0,.4,0,.7,0,1,.3,0,.5,0,.8,0,.2,0,.5,0,.9,0s.9,0,1.3-.3c.4-.2.7-.4,1-.8.3-.3.5-.8.7-1.3.2-.5.3-1.1.3-1.7"/>
        <path class="cls-1" d="M153.6,19.3c0-1.3,0-2.6-.2-3.9.3,0,.7,0,1.1.1.4,0,.8,0,1.3,0s.9,0,1.3,0c.4,0,.8,0,1.1-.1,0,1.3-.1,2.6-.2,3.9,0,1.3,0,2.7,0,4.4v4c0,1.6,0,3.1,0,4.4,0,1.3,0,2.5.2,3.8-.3,0-.7,0-1.1,0h-2.7c-.4,0-.8,0-1.1,0,0-1.2.1-2.5.2-3.8,0-1.3,0-2.7,0-4.4v-4c0-1.6,0-3.1,0-4.4"/>
        <path class="cls-1" d="M163.1,19.3c0-1.3,0-2.6-.2-3.9.9,0,1.8,0,2.7,0,.9,0,1.8,0,2.7,0,1.5,0,2.8,0,3.9,0,1.1,0,1.9,0,2.3-.1,0,.3-.1.7-.1,1.3s0,.6,0,.7c0,.2,0,.4,0,.6-.6,0-1.2,0-1.9-.1-.7,0-1.4,0-2-.1-.6,0-1.2,0-1.7,0-.5,0-.9,0-1.1,0,0,1.1-.1,2.2-.1,3.2,0,1.1,0,2.2,0,3.2,1.3,0,2.5,0,3.5,0,1,0,2.1,0,3.3-.1,0,.3,0,.6-.1.8,0,.2,0,.4,0,.6s0,.3,0,.5c0,.2,0,.4.1.7-2.3-.2-4.5-.3-6.8-.3,0,.6,0,1.3,0,1.9,0,.6,0,1.3,0,1.9,0,1.3,0,2.5,0,3.7,1.1,0,2.3,0,3.4,0,1.1,0,2.3-.2,3.4-.3,0,.2,0,.4,0,.6,0,.2,0,.4,0,.7s0,.6,0,.7c0,.2,0,.3,0,.4-.5,0-1.2,0-2,0-.8,0-1.9,0-3.2,0h-4.7c-.4,0-.8,0-1,0-.2,0-.4,0-.6,0,0-1.2.1-2.5.2-3.8,0-1.3,0-2.7,0-4.4v-4c0-1.6,0-3.1,0-4.4"/>
        <path class="cls-1" d="M178.6,21.3c0-1.4,0-2.5,0-3.5,0-.9,0-1.8,0-2.5.6,0,1,.1,1.3.1s.8,0,1.3-.1c2.2,2.4,4.3,4.8,6.4,7.1,2.1,2.3,4.3,4.7,6.5,7.1v-5.5c0-1,0-1.9,0-2.9,0-.9,0-1.8,0-2.6,0-.8,0-1.5,0-2.1,0-.6,0-1-.1-1.2.6,0,1,.1,1.3.1s.8,0,1.3-.1c0,1.8-.2,3.4-.2,4.9,0,1.5-.1,2.8-.1,4.1,0,1.3,0,2.6,0,3.8,0,1.3,0,2.6,0,4v3.6c-.4,0-.8,0-1.2,0s-.8,0-1.2,0c-4.1-4.8-8.4-9.6-13-14.4,0,.6,0,1.2,0,1.7,0,.6,0,1.2,0,1.8v3.5c0,1.2,0,2.2,0,3,0,.8,0,1.5,0,2.1,0,.6,0,1,0,1.4,0,.4,0,.7,0,.9-.2,0-.5,0-.7,0h-.7c-.5,0-.9,0-1.4,0,0-.2,0-.7.1-1.7,0-1,.1-2.2.2-3.6,0-1.4.1-2.9.2-4.6,0-1.6,0-3.2,0-4.7"/>
        <path class="cls-1" d="M201.2,19.3c0-1.3,0-2.6-.2-3.9.9,0,1.8,0,2.7,0,.9,0,1.8,0,2.7,0,1.5,0,2.8,0,3.9,0,1.1,0,1.9,0,2.3-.1,0,.3-.1.7-.1,1.3s0,.6,0,.7c0,.2,0,.4,0,.6-.6,0-1.2,0-1.9-.1-.7,0-1.4,0-2-.1-.6,0-1.2,0-1.7,0-.5,0-.9,0-1.1,0,0,1.1-.1,2.2-.1,3.2,0,1.1,0,2.2,0,3.2,1.3,0,2.5,0,3.5,0,1,0,2.1,0,3.3-.1,0,.3,0,.6-.1.8,0,.2,0,.4,0,.6s0,.3,0,.5c0,.2,0,.4.1.7-2.3-.2-4.5-.3-6.8-.3,0,.6,0,1.3,0,1.9,0,.6,0,1.3,0,1.9,0,1.3,0,2.5,0,3.7,1.1,0,2.3,0,3.4,0,1.1,0,2.3-.2,3.4-.3,0,.2,0,.4,0,.6,0,.2,0,.4,0,.7s0,.6,0,.7c0,.2,0,.3,0,.4-.5,0-1.2,0-2,0-.8,0-1.9,0-3.2,0h-4.7c-.4,0-.8,0-1,0-.2,0-.4,0-.6,0,0-1.2.1-2.5.2-3.8,0-1.3,0-2.7,0-4.4v-4c0-1.6,0-3.1,0-4.4"/>
        <path class="cls-1" d="M221.6,16.9c-.9,0-1.7.3-2.2.8-.6.5-.9,1.2-.9,1.9s.2,1.3.7,1.8c.4.5,1,.9,1.7,1.3.7.4,1.4.7,2.2,1.1.8.3,1.5.8,2.2,1.3.7.5,1.2,1.1,1.7,1.8.4.7.7,1.7.7,2.8s-.2,1.9-.6,2.7c-.4.8-.9,1.5-1.6,2.1-.7.6-1.5,1-2.5,1.3-1,.3-2,.5-3.2.5s-2-.1-2.9-.3c-.8-.2-1.5-.5-1.9-.8.2-.7.4-1.3.5-1.9.1-.6.3-1.2.4-1.9h.6c0,.4.2.8.4,1.2.2.4.5.7.8,1,.3.3.7.5,1.2.7.5.2,1,.3,1.6.3,1.2,0,2.1-.3,2.6-.9.6-.6.8-1.3.8-2.1s-.2-1.4-.7-1.8c-.4-.5-1-.9-1.6-1.3-.7-.4-1.4-.7-2.1-1.1-.8-.3-1.5-.8-2.1-1.3-.7-.5-1.2-1.1-1.6-1.8-.4-.7-.7-1.7-.7-2.8s.2-1.9.6-2.7c.4-.8.9-1.5,1.5-2,.6-.5,1.3-.9,2.1-1.2.8-.3,1.7-.4,2.5-.4s2,.1,2.8.4c.8.3,1.5.6,2.1,1.1-.2.5-.3.9-.5,1.3-.1.4-.3,1-.5,1.6h-.4c-.6-1.7-1.8-2.6-3.6-2.6"/>
        <path class="cls-1" d="M234.8,18.7c0-.5,0-.8,0-1-.3,0-.7,0-1.1,0-.4,0-.9,0-1.4,0-.5,0-1,0-1.5.1-.5,0-1,.1-1.4.2,0-.2,0-.4.1-.7,0-.2,0-.4,0-.7s0-.4,0-.7c0-.2,0-.4-.1-.7.7,0,1.3,0,1.8,0,.5,0,1.1,0,1.7,0,.6,0,1.2,0,1.8,0,.7,0,1.5,0,2.4,0s1.7,0,2.4,0c.7,0,1.3,0,1.8,0,.6,0,1.1,0,1.6,0,.5,0,1.1,0,1.7,0,0,.2,0,.4-.1.7,0,.2,0,.4,0,.7s0,.4,0,.7c0,.2,0,.4.1.7-.4,0-.8-.1-1.3-.2-.5,0-1,0-1.5-.1-.5,0-.9,0-1.4,0-.4,0-.8,0-1.1,0,0,0,0,.2,0,.4,0,.2,0,.4,0,.6v9c0,1.6,0,3.1,0,4.4,0,1.3,0,2.5.2,3.8-.3,0-.7,0-1.1,0h-2.7c-.4,0-.8,0-1.1,0,0-1.2.1-2.5.2-3.8,0-1.3,0-2.7,0-4.4v-7.4c0-.6,0-1.1,0-1.6"/>
        <path class="cls-1" d="M262.5,35.9c-.5,0-.9,0-1.4,0h-2.5c-.4,0-.8,0-1.3,0-.3-1-.6-2-1-3-.3-1-.7-2-1.1-3-.6,0-1.3,0-1.9,0-.6,0-1.3,0-1.9,0s-1,0-1.5,0c-.5,0-1,0-1.5,0-.4,1-.8,2-1.1,3-.3,1-.6,2-.9,3-.2,0-.5,0-.7,0h-1.4c-.2,0-.5,0-.8,0,.2-.5.6-1.2,1-2.1.4-.9.8-1.9,1.3-3.1.5-1.2,1-2.4,1.5-3.7.5-1.3,1.1-2.7,1.6-4,.5-1.3,1.1-2.7,1.6-4,.5-1.3,1-2.5,1.4-3.7.2,0,.4,0,.6.1.2,0,.4,0,.6,0s.4,0,.6,0c.2,0,.4,0,.6-.1.6,1.7,1.3,3.5,2,5.4.7,1.9,1.5,3.8,2.2,5.7.7,1.9,1.5,3.6,2.1,5.3.7,1.7,1.3,3.1,1.9,4.2M252,21c-.5,1.2-1,2.4-1.5,3.5-.5,1.2-.9,2.3-1.3,3.6h5.5c-.4-1.2-.9-2.4-1.3-3.6-.4-1.2-.9-2.3-1.4-3.5"/>
        <path class="cls-1" d="M270,26.5v1.2c0,1.6,0,3.1,0,4.4,0,1.3,0,2.5.2,3.8-.3,0-.7,0-1.1,0h-2.7c-.4,0-.8,0-1.1,0,0-1.2.1-2.5.2-3.8,0-1.3,0-2.7,0-4.4v-4c0-1.6,0-3.1,0-4.4,0-1.3,0-2.6-.2-3.9.3,0,.7,0,1.1.1.4,0,.8,0,1.3,0s1.1,0,1.8,0c.7,0,1.5,0,2.5,0s1.4,0,1.9,0c.5,0,1,0,1.4.2.4,0,.7.2,1,.3.3.1.6.3.8.5.6.4,1.1,1,1.4,1.6.3.6.5,1.4.5,2.3,0,1.4-.4,2.6-1.2,3.5-.8.9-1.9,1.6-3.4,1.9,1,1.7,2,3.4,3.1,5,1.1,1.7,2.2,3.3,3.3,5-.5,0-.9,0-1.3,0h-2.7c-.4,0-.9,0-1.4,0l-5.3-9.4h-.3ZM274.7,21c0-.9,0-1.6-.3-2.1-.2-.5-.5-.9-.8-1.2-.4-.3-.8-.4-1.4-.5-.6,0-1.3-.1-2.1-.1,0,2.7,0,5.4,0,8.1.1,0,.2,0,.3,0,.1,0,.2,0,.3,0,1.3,0,2.3-.4,3-1.1.7-.7,1-1.8,1-3.2"/>
        <rect class="cls-1" x="62" y="45.2" width="218.8" height="2.1"/>
      </g>
    </g>
  </g>
</svg>